<?xml version="1.0" encoding="iso-8859-1"?>
<!-- Generator: Adobe Illustrator 19.0.0, SVG Export Plug-In . SVG Version: 6.00 Build 0)  -->
<svg version="1.1" id="Capa_1" xmlns="http://www.w3.org/2000/svg" xmlns:xlink="http://www.w3.org/1999/xlink" x="0px" y="0px"
	 viewBox="0 0 379.904 379.904" style="enable-background:new 0 0 379.904 379.904;" xml:space="preserve">
<g>
	<g>
		<path d="M322.383,142.336c-14.848-36.352,15.36-83.968,15.36-84.48c1.536-2.048,1.024-5.12-1.024-6.656l-32.256-27.648
			c-1.536-1.024-3.584-1.536-5.12-1.024c-67.584,28.16-103.936-18.432-105.472-20.48C192.847,1.024,191.311,0,189.775,0
			s-3.072,0.512-4.096,2.048c-1.536,2.048-37.888,48.64-105.472,20.48c-1.536-0.512-3.584-0.512-5.12,1.024L42.831,51.2
			c-2.048,1.536-2.56,4.608-1.024,6.656c0.512,0.512,30.72,48.128,15.36,84.48c-11.776,29.184-39.936,97.792,8.704,164.352
			c26.112,35.84,56.832,44.032,81.408,50.176c17.408,4.608,31.232,8.192,38.4,20.48c1.024,1.536,2.56,2.56,4.608,2.56
			c2.048,0,3.584-1.024,4.608-2.56c6.656-12.288,20.48-15.872,38.4-20.48c24.576-6.656,55.296-14.848,81.408-50.176
			C362.319,240.128,334.671,171.52,322.383,142.336z M305.487,301.056c-24.064,32.768-51.2,39.936-75.776,46.592
			c-16.384,4.096-30.72,8.192-39.936,18.944c-9.216-10.752-23.552-14.848-39.936-18.944c-24.064-6.656-51.712-13.824-75.776-46.592
			C34.127,246.272,47.951,192,66.383,146.432c14.336-35.328-6.656-77.312-14.336-90.112l26.624-22.528
			c60.416,23.552,98.816-7.68,110.592-20.48c4.608,5.12,13.824,12.8,26.624,18.944c17.92,8.704,46.592,15.872,84.48,1.024
			l26.624,22.528c-7.168,12.8-28.672,54.784-14.336,90.112C331.599,192,345.423,246.272,305.487,301.056z"/>
	</g>
</g>
<g>
</g>
<g>
</g>
<g>
</g>
<g>
</g>
<g>
</g>
<g>
</g>
<g>
</g>
<g>
</g>
<g>
</g>
<g>
</g>
<g>
</g>
<g>
</g>
<g>
</g>
<g>
</g>
<g>
</g>
</svg>
