<svg id="Capa_1" enable-background="new 0 0 512 512" height="512" viewBox="0 0 512 512" width="512" xmlns="http://www.w3.org/2000/svg" xmlns:xlink="http://www.w3.org/1999/xlink"><linearGradient id="SVGID_1_" gradientUnits="userSpaceOnUse" x1="256" x2="256" y1="436" y2="76"><stop offset="0" stop-color="#5558ff"/><stop offset="1" stop-color="#00c0ff"/></linearGradient><linearGradient id="SVGID_2_" gradientUnits="userSpaceOnUse" x1="256" x2="256" y1="376" y2="136"><stop offset="0" stop-color="#addcff"/><stop offset=".5028" stop-color="#eaf6ff"/><stop offset="1" stop-color="#eaf6ff"/></linearGradient><g id="Credit_card_4_"><g><g><path d="m482 196h-452c-16.569 0-30 13.431-30 30v165c0 24.853 20.147 45 45 45h422c24.853 0 45-20.147 45-45v-165c0-16.569-13.431-30-30-30zm-15-120h-422c-24.853 0-45 20.147-45 45v15c0 16.569 13.431 30 30 30h452c16.569 0 30-13.431 30-30v-15c0-24.853-20.147-45-45-45z" fill="url(#SVGID_1_)"/></g></g><g><g><path d="m0 136v90h512v-90zm180 120c-10.576 0-20.889 2.856-30 8.188-9.111-5.332-19.424-8.188-30-8.188-33.076 0-60 26.909-60 60s26.924 60 60 60c10.576 0 20.889-2.856 30-8.188 9.111 5.332 19.424 8.188 30 8.188 33.076 0 60-26.909 60-60s-26.924-60-60-60zm167 60h-30c-8.291 0-15 6.709-15 15s6.709 15 15 15h30c8.291 0 15-6.709 15-15s-6.709-15-15-15zm90 0h-30c-8.291 0-15 6.709-15 15s6.709 15 15 15h30c8.291 0 15-6.709 15-15s-6.709-15-15-15z" fill="url(#SVGID_2_)"/></g></g></g></svg>