<svg height="512" viewBox="0 0 512 512" width="512" xmlns="http://www.w3.org/2000/svg"><g id="flat"><path d="m416 184.039v-.039a160 160 0 1 0 -319.727 10.166c.006.115.014.23.02.346.04.669.077 1.337.126 2.008a190.1 190.1 0 0 0 29.94 90.537l129.641 200.943 129.641-200.943a190.1 190.1 0 0 0 29.723-87.608q.686-7.626.636-15.41z" fill="#fbb540"/><circle cx="256" cy="176" fill="#ea9d2d" r="136"/><path d="m240 136.953h128v112h-128z" fill="#e4e4e2"/><path d="m240 248.953h-96v-112l48-48 48 48z" fill="#ebebeb"/><path d="m192 88.953h136l40 48h-128z" fill="#4799cf"/><path d="m208 176.95v72h-32v-72a16 16 0 1 1 32 0z" fill="#3775a4"/><path d="m200 176.95v72h-24v-72a16.021 16.021 0 0 1 12-15.5 16.015 16.015 0 0 1 12 15.5z" fill="#4799cf"/><path d="m280 168.953h32v32h-32z" fill="#3775a4"/><path d="m280 168.953h24v23.047h-24z" fill="#4799cf"/><g fill="#fba830"><path d="m255.918 322.213a137.035 137.035 0 0 1 -93.361-36.724 8 8 0 1 1 10.886-11.724 121.279 121.279 0 0 0 165.106.015 8 8 0 0 1 10.9 11.711 136.242 136.242 0 0 1 -76.82 35.7 137.992 137.992 0 0 1 -16.711 1.022z"/><path d="m308.892 352a8 8 0 0 1 -6.714-12.338l5.162-8a8 8 0 1 1 13.443 8.674l-5.162 8a7.992 7.992 0 0 1 -6.729 3.664z"/><path d="m255.992 434a8 8 0 0 1 -6.715-12.338l37.416-57.995a8 8 0 0 1 13.446 8.674l-37.416 58a8 8 0 0 1 -6.731 3.659z"/></g></g></svg>