<?xml version="1.0" encoding="iso-8859-1"?>
<!-- Generator: Adobe Illustrator 18.0.0, SVG Export Plug-In . SVG Version: 6.00 Build 0)  -->
<!DOCTYPE svg PUBLIC "-//W3C//DTD SVG 1.1//EN" "http://www.w3.org/Graphics/SVG/1.1/DTD/svg11.dtd">
<svg version="1.1" id="Capa_1" xmlns="http://www.w3.org/2000/svg" xmlns:xlink="http://www.w3.org/1999/xlink" x="0px" y="0px"
	 viewBox="0 0 326.484 326.484" style="enable-background:new 0 0 326.484 326.484;" xml:space="preserve">
<g>
	<path d="M227.457,13.117c-2.538-1.087-5.478,0.089-6.564,2.628c-1.087,2.538,0.089,5.478,2.628,6.564
		c56.473,24.187,92.963,79.506,92.963,140.933c0,84.498-68.744,153.242-153.242,153.242C78.744,316.484,10,247.74,10,163.242
		C10,78.744,78.744,10,163.242,10c15.359,0,30.518,2.264,45.055,6.729c2.64,0.809,5.436-0.672,6.248-3.311
		c0.811-2.64-0.672-5.437-3.312-6.248C195.744,2.412,179.597,0,163.242,0C73.23,0,0,73.23,0,163.242s73.23,163.242,163.242,163.242
		c90.012,0,163.242-73.23,163.242-163.242C326.484,97.808,287.614,38.88,227.457,13.117z"/>
	<path d="M264.058,91.663c1.055,0,2.119-0.333,3.023-1.021c2.198-1.672,2.624-4.809,0.952-7.007c-2.032-2.671-4.195-5.3-6.429-7.812
		c-1.835-2.064-4.996-2.249-7.059-0.414c-2.064,1.835-2.249,4.995-0.414,7.059c2.065,2.322,4.064,4.752,5.943,7.222
		C261.059,90.982,262.55,91.663,264.058,91.663z"/>
	<path d="M163.242,284.836c-25.472,0-49.858-7.79-70.523-22.529c-2.248-1.603-5.371-1.081-6.974,1.168
		c-1.603,2.248-1.081,5.371,1.168,6.974c22.369,15.954,48.764,24.387,76.33,24.387c72.561,0,131.594-59.033,131.594-131.594
		c0-22.876-5.962-45.409-17.241-65.161c-1.368-2.398-4.423-3.231-6.821-1.862c-2.398,1.369-3.232,4.423-1.862,6.821
		c10.418,18.244,15.924,39.062,15.924,60.202C284.836,230.289,230.289,284.836,163.242,284.836z"/>
	<path d="M69.118,248.046c-1.977,1.928-2.016,5.094-0.088,7.071c1.631,1.672,3.332,3.325,5.053,4.911
		c0.961,0.886,2.175,1.323,3.387,1.323c1.348,0,2.693-0.542,3.678-1.612c1.871-2.03,1.742-5.194-0.289-7.065
		c-1.591-1.466-3.162-2.994-4.67-4.54C74.26,246.158,71.095,246.118,69.118,248.046z"/>
	<path d="M163.242,31.648c-72.561,0-131.593,59.033-131.593,131.594c0,27.239,8.251,53.376,23.859,75.585
		c0.974,1.385,2.522,2.126,4.095,2.126c0.993,0,1.997-0.295,2.871-0.91c2.259-1.588,2.804-4.707,1.216-6.966
		c-14.419-20.516-22.041-44.665-22.041-69.835c0-67.047,54.546-121.594,121.593-121.594c29.924,0,58.683,10.968,80.977,30.885
		c2.06,1.84,5.22,1.661,7.06-0.398c1.839-2.06,1.662-5.22-0.398-7.06C226.751,43.52,195.627,31.648,163.242,31.648z"/>
	<path d="M167.331,215.045c-0.393-2.201-2.327-3.859-4.611-3.859c-2.273,0-4.205,1.648-4.607,3.837
		c-11.907-1.397-25.301-8.871-28.216-20.657c-0.006-0.026-0.066-0.293-0.251-1.609c-0.343-2.451-2.429-4.298-4.86-4.298
		c-1.355,0.026-2.642,0.626-3.529,1.646c-0.888,1.02-1.305,2.374-1.145,3.717c0.171,1.435,0.236,1.849,0.274,2.049
		c1.542,8.197,6.468,15.28,14.244,20.484c6.578,4.403,14.874,7.259,23.408,8.065v5.933c0,2.462,1.848,4.576,4.208,4.813
		c0.161,0.016,0.319,0.024,0.476,0.024c1.458,0,2.811-0.667,3.714-1.829c0.625-0.805,0.969-1.877,0.969-3.019v-5.929
		c9.834-0.958,19.47-4.72,26.501-10.359c8.178-6.557,12.501-15.126,12.501-24.781c0-2.265-0.268-4.48-0.895-7.41
		c-4.366-19.831-22.973-22.029-38.107-23.665v-47.783c8.234,0.774,15.987,4.163,20.813,9.11c2.667,2.948,4.478,6.542,5.376,10.632
		c0.268,2.322,2.232,4.074,4.569,4.074c0.288,0,0.579-0.028,0.864-0.082l0.201-0.038c2.342-0.446,3.942-2.574,3.722-4.957
		l-0.065-0.595c-1.564-8.151-6.194-15.075-13.39-20.022c-6.12-4.208-13.948-6.867-22.089-7.512v-4.893
		c0-2.462-1.848-4.576-4.208-4.813c-2.792-0.284-5.16,1.92-5.159,4.66v5.093c-4.989,0.463-9.812,1.609-14.344,3.409
		c-1.121,0.445-2.028,1.233-2.555,2.221c-0.724,1.356-0.764,2.896-0.11,4.223c0.79,1.604,2.383,2.6,4.157,2.6
		c0.581,0,1.149-0.109,1.689-0.325c3.435-1.366,7.188-2.278,11.163-2.715v46.877c-13.147-1.661-25.959-4.715-27.492-20.148
		c-0.216-3.886,0.182-9.479,3.299-14.048c0.077-0.112,0.29-0.387,0.573-0.743c1.579-1.982,1.312-4.829-0.607-6.479
		c-0.85-0.73-1.934-1.133-3.054-1.133c-1.441,0-2.782,0.646-3.677,1.773c-0.23,0.289-0.784,0.993-0.963,1.267
		c-3.753,5.746-5.605,13.036-5.08,20.02c1.109,9.903,5.425,17.055,13.193,21.867c7.426,4.599,17.05,6.234,23.807,7.049V200.7
		c0,2.487,1.852,4.617,4.217,4.848c2.786,0.271,5.15-1.924,5.15-4.661V167.76c13.695,1.501,26.118,3.973,28.885,16.225
		c0.394,1.707,0.585,3.437,0.585,5.287C196.874,205.047,181.654,213.646,167.331,215.045z"/>
</g>
<g>
</g>
<g>
</g>
<g>
</g>
<g>
</g>
<g>
</g>
<g>
</g>
<g>
</g>
<g>
</g>
<g>
</g>
<g>
</g>
<g>
</g>
<g>
</g>
<g>
</g>
<g>
</g>
<g>
</g>
</svg>
